<svg width="55" height="55" viewBox="0 0 55 55" fill="none" xmlns="http://www.w3.org/2000/svg">
<path d="M5.92958 26.1477C5.92841 30.1499 7.03138 34.0577 9.12866 37.5022L5.729 49.2708L18.4318 46.1129C21.9453 47.9264 25.8818 48.8766 29.8822 48.8768H29.8927C43.0985 48.8768 53.8484 38.6884 53.854 26.1656C53.8565 20.0974 51.3663 14.3912 46.8419 10.0982C42.3182 5.80556 36.3019 3.44027 29.8917 3.4375C16.6843 3.4375 5.93523 13.6254 5.92977 26.1477" fill="url(#paint0_linear_8233_59)"/>
<path d="M2.51181 26.1169C2.51037 30.72 3.71833 35.2136 6.01485 39.1745L2.2915 52.7083L16.2038 49.0768C20.0371 51.1575 24.353 52.2545 28.7447 52.2562H28.756C43.2195 52.2562 54.9937 40.5382 54.9998 26.1378C55.0023 19.1589 52.2747 12.5962 47.3201 7.65945C42.3649 2.72328 35.7763 0.00286963 28.756 0C14.2901 0 2.51757 11.7163 2.51181 26.1169ZM10.7969 38.4924L10.2774 37.6715C8.09374 34.2148 6.94116 30.2203 6.94281 26.1185C6.94754 14.1491 16.7324 4.41103 28.7643 4.41103C34.591 4.41349 40.0669 6.67476 44.1856 10.7775C48.304 14.8807 50.5703 20.335 50.5688 26.1362C50.5635 38.1056 40.7785 47.8449 28.756 47.8449H28.7474C24.8328 47.8429 20.9935 46.7963 17.6453 44.8185L16.8485 44.3481L8.59262 46.503L10.7969 38.4922V38.4924Z" fill="url(#paint1_linear_8233_59)"/>
<path d="M24.4511 14.8678C24.0075 13.8049 23.5408 13.7835 23.119 13.7649C22.7736 13.7488 22.3788 13.75 21.9843 13.75C21.5895 13.75 20.948 13.9102 20.4058 14.5485C19.863 15.1875 18.3335 16.7316 18.3335 19.8722C18.3335 23.013 20.455 26.0481 20.7508 26.4744C21.0469 26.8999 24.8464 33.551 30.864 36.1097C35.8651 38.2361 36.8828 37.8132 37.9682 37.7066C39.0538 37.6003 41.4711 36.1629 41.9642 34.6722C42.4578 33.1818 42.4578 31.9043 42.3098 31.6373C42.1618 31.3713 41.767 31.2116 41.175 30.8925C40.5827 30.5732 37.6721 29.0289 37.1295 28.8158C36.5867 28.603 36.1921 28.4968 35.7972 29.1359C35.4024 29.7741 34.2687 31.2116 33.9231 31.6373C33.5779 32.064 33.2324 32.1171 32.6405 31.7979C32.0481 31.4776 30.1414 30.8043 27.8794 28.6298C26.1194 26.9378 24.9312 24.8483 24.5858 24.2091C24.2404 23.571 24.5488 23.225 24.8457 22.9069C25.1117 22.6209 25.4379 22.1615 25.7342 21.7889C26.0294 21.4161 26.1279 21.1501 26.3254 20.7244C26.523 20.2983 26.4241 19.9255 26.2763 19.6062C26.1279 19.2869 24.9775 16.1299 24.4511 14.8678Z" fill="white"/>
<defs>
<linearGradient id="paint0_linear_8233_59" x1="29.7915" y1="49.2708" x2="29.7915" y2="3.4375" gradientUnits="userSpaceOnUse">
<stop stop-color="#1FAF38"/>
<stop offset="1" stop-color="#60D669"/>
</linearGradient>
<linearGradient id="paint1_linear_8233_59" x1="28.6457" y1="52.7083" x2="28.6457" y2="0" gradientUnits="userSpaceOnUse">
<stop stop-color="#F9F9F9"/>
<stop offset="1" stop-color="white"/>
</linearGradient>
</defs>
</svg>
